<svg width="40" height="40" viewBox="0 0 40 40" fill="none" xmlns="http://www.w3.org/2000/svg">
<circle cx="20" cy="20" r="20" fill="url(#paint0_linear_784_3138)"/>
<path d="M21.2073 12.666C22.6063 12.7884 23.8217 13.1557 24.8535 13.7677C25.9027 14.3798 26.7159 15.2017 27.293 16.2335C27.8701 17.2653 28.1586 18.4894 28.1586 19.9059C28.1586 21.3224 27.8788 22.5553 27.3192 23.6046C26.7596 24.6363 25.9639 25.4583 24.9322 26.0703C23.9004 26.6649 22.6588 27.0234 21.2073 27.1458V33.2316H18.9514V27.1458C17.5698 27.0234 16.3544 26.6649 15.3052 26.0703C14.2559 25.4583 13.4427 24.6363 12.8656 23.6046C12.2885 22.5553 12 21.3224 12 19.9059C12 18.4719 12.2798 17.239 12.8394 16.2073C13.399 15.158 14.2035 14.3361 15.2527 13.7415C16.302 13.1294 17.5611 12.7709 19.0301 12.666V7H21.2073V12.666ZM19.0301 14.5809C17.9633 14.6858 17.0889 14.9569 16.4069 15.3941C15.7249 15.8313 15.2177 16.4259 14.8855 17.1778C14.5707 17.9298 14.4133 18.8392 14.4133 19.9059C14.4133 20.9552 14.5707 21.8645 14.8855 22.634C15.2177 23.386 15.7249 23.9893 16.4069 24.444C17.0889 24.8812 17.9633 25.1522 19.0301 25.2572V14.5809ZM21.2073 25.2572C22.2565 25.1347 23.1134 24.8549 23.778 24.4177C24.46 23.9806 24.9584 23.386 25.2732 22.634C25.6054 21.8645 25.7716 20.9552 25.7716 19.9059C25.7716 18.8567 25.6054 17.956 25.2732 17.2041C24.9409 16.4521 24.4338 15.8575 23.7517 15.4203C23.0872 14.9831 22.2391 14.7121 21.2073 14.6072V25.2572Z" fill="#1C1D1F"/>
<defs>
<linearGradient id="paint0_linear_784_3138" x1="0" y1="0" x2="40" y2="40" gradientUnits="userSpaceOnUse">
<stop stop-color="#20E2D0"/>
<stop offset="1" stop-color="#00C2FF"/>
</linearGradient>
</defs>
</svg>
